<?xml version="1.0" encoding="utf-8"?>
<!-- Generator: Adobe Illustrator 16.0.0, SVG Export Plug-In . SVG Version: 6.00 Build 0)  -->
<!DOCTYPE svg PUBLIC "-//W3C//DTD SVG 1.1//EN" "http://www.w3.org/Graphics/SVG/1.1/DTD/svg11.dtd">
<svg version="1.1" xmlns="http://www.w3.org/2000/svg" xmlns:xlink="http://www.w3.org/1999/xlink" x="0px" y="0px"
	 width="268.486px" height="214.403px" viewBox="0 0 268.486 214.403" enable-background="new 0 0 268.486 214.403"
	 xml:space="preserve">
<g id="Layer_2" display="none" opacity="0.5">
	
		<rect x="10.407" y="18.903" display="inline" fill="none" stroke="#000000" stroke-width="7" stroke-linejoin="round" stroke-miterlimit="10" width="250" height="167"/>
	
		<polyline display="inline" fill="none" stroke="#000000" stroke-width="7" stroke-linejoin="round" stroke-miterlimit="10" points="
		260.186,54.804 135.621,116.856 135.62,116.856 10.642,55.643 	"/>
</g>
<g id="Layer_4" display="none" opacity="0.5">
	<g display="inline">
		<path fill="none" stroke="#000000" stroke-width="7" stroke-linejoin="round" stroke-miterlimit="10" d="M227.19,150.397
			c0,13.811-9.637,25.006-21.525,25.006H63.149c-11.888,0-21.525-11.195-21.525-25.006V56.41c0-13.81,9.638-25.006,21.525-25.006
			h142.516c11.889,0,21.525,11.196,21.525,25.006V150.397z"/>
		<path fill="none" stroke="#000000" stroke-width="7" stroke-linejoin="round" stroke-miterlimit="10" d="M41.995,63.739
			l70.268,40.239c18.805,12.646,25.731,10.348,36.619,4.024c10.887-6.324,78.186-45.413,78.186-45.413"/>
	</g>
</g>
<g id="square">
	
		<rect x="48.907" y="45.403" opacity="0.6" fill="none" stroke="#0071BC" stroke-width="12" stroke-miterlimit="10" width="190" height="143"/>
	<rect x="26.907" y="25.403" fill="none" stroke="#0071BC" stroke-width="12" stroke-miterlimit="10" width="190" height="143"/>
	<polyline fill="none" stroke="#0071BC" stroke-width="12" stroke-miterlimit="10" points="214.157,23.403 122.407,104.903 
		32.407,22.903 	"/>
	
		<line fill="none" stroke="#0071BC" stroke-width="12" stroke-linecap="round" stroke-miterlimit="10" x1="216.407" y1="168.403" x2="239.407" y2="188.903"/>
	
		<line fill="none" stroke="#0071BC" stroke-width="12" stroke-linecap="round" stroke-miterlimit="10" x1="27.407" y1="168.403" x2="50.407" y2="187.903"/>
	
		<line fill="none" stroke="#0071BC" stroke-width="12" stroke-linecap="round" stroke-miterlimit="10" x1="218.907" y1="25.653" x2="239.407" y2="44.903"/>
</g>
<g id="Layer_3" display="none" opacity="0.5">
	<path display="inline" fill="none" stroke="#000000" stroke-width="7" stroke-miterlimit="10" d="M233.407,29.903
		c0-14.912-12.088-27-27-27h-138c-14.912,0-27,12.088-27,27v138c0,14.912,12.088,27,27,27h138c14.912,0,27-12.088,27-27V29.903z"/>
	<g display="inline">
		<path d="M138.906,58.069c23.013,0,41.668,18.655,41.668,41.668s-18.655,41.668-41.668,41.668S97.238,122.75,97.238,99.737
			S115.894,58.069,138.906,58.069 M138.906,51.069c-26.836,0-48.668,21.833-48.668,48.668c0,26.836,21.832,48.668,48.668,48.668
			s48.668-21.832,48.668-48.668C187.574,72.902,165.742,51.069,138.906,51.069L138.906,51.069z"/>
	</g>
	<path display="inline" fill="none" stroke="#000000" stroke-width="5" stroke-miterlimit="10" d="M219.407,31.903
		c0-8.284-6.716-15-15-15h-12c-8.284,0-15,6.716-15,15v12c0,8.284,6.716,15,15,15h12c8.284,0,15-6.716,15-15V31.903z"/>
	
		<line display="inline" fill="none" stroke="#000000" stroke-width="7" stroke-miterlimit="10" x1="41.907" y1="82.903" x2="98.907" y2="82.903"/>
	
		<line display="inline" fill="none" stroke="#000000" stroke-width="7" stroke-miterlimit="10" x1="180.907" y1="82.903" x2="234.907" y2="82.903"/>
</g>
</svg>
